<?xml version="1.0" encoding="UTF-8"?>
<svg id="Camada_1" data-name="Camada 1" xmlns="http://www.w3.org/2000/svg" viewBox="0 0 800 308.68">
  <defs>
    <style>
      .cls-1 {
        fill: #0400a1;
        stroke-width: 0px;
      }
    </style>
  </defs>
  <polygon class="cls-1" points="113.68 158.56 113.66 158.57 113.68 158.57 113.68 158.56"/>
  <path class="cls-1" d="M0,189.54c0,60.2,48.8,109,109,109h0c60.2,0,109-48.8,109-109V14.12H0v175.43ZM184.75,213.65c-.04.15-.1.3-.15.45-.79,2.47-1.71,4.88-2.74,7.23l-52.55-17.04,32.42,44.69c-1.92,1.72-3.93,3.33-6.01,4.85-2.11,1.53-4.3,2.97-6.55,4.29l-32.39-44.63.03,55.14c-1.51.16-3.02.26-4.55.32-1.08.05-2.16.07-3.25.07s-2.2-.03-3.29-.07c-1.53-.06-3.03-.17-4.54-.32v-55.06l-32.33,44.55c-2.26-1.31-4.44-2.75-6.55-4.29-2.12-1.54-4.15-3.18-6.1-4.92l32.41-44.56-52.4,17.07c-1.05-2.38-1.98-4.82-2.79-7.32-.07-.2-.13-.41-.19-.61-.72-2.28-1.34-4.6-1.84-6.96l60.25-19.54c6.94-2.25,14.39,1.54,16.66,8.48l.73,2.23.71-2.2c2.26-6.95,9.72-10.75,16.66-8.5l60.27,19.55c-.52,2.41-1.16,4.78-1.9,7.1ZM99.23,165.05c0-2.68,1.09-5.12,2.85-6.89,1.77-1.77,4.22-2.87,6.91-2.87s5.12,1.08,6.89,2.85c1.77,1.75,2.88,4.21,2.88,6.91,0,5.39-4.37,9.76-9.76,9.76s-9.76-4.37-9.76-9.76ZM181.09,156.03c1.13-.47,2.36-.72,3.66-.73h.04c4.21,0,8.05,2.66,9.28,6.69,1.8,5.86-1.79,11.32-7.02,12.57-.72.18-1.49.26-2.27.26h-.04c-2.18,0-4.18-.73-5.8-1.95-1.15-.86-2.49-1.42-3.92-1.5l-37.27-2h0l-.47-.03c-2.16-.23-3.85-2.06-3.85-4.29,0-2.38,1.93-4.31,4.31-4.31l37.22-2c1.43-.08,2.79-.6,3.93-1.47.67-.5,1.4-.92,2.19-1.24ZM148.25,112.85c-.4-4.12.98-8.39,4.14-11.55t.02-.02c4.64-4.64,11.69-5.45,17.16-2.41.01,0,.02.01.03.02.74.5,1.49,1.02,2.22,1.54.02,0,.04.03.05.03.3.26.6.53.88.81h0c5.62,5.63,5.62,14.75,0,20.37l-.02.02c-3.16,3.16-7.43,4.53-11.56,4.12-2.42-.24-4.84.44-6.65,2.07l-22.16,19.91c-1.68,1.68-4.42,1.68-6.1,0h0c-1.68-1.69-1.68-4.42,0-6.1l19.91-22.17c1.62-1.81,2.31-4.23,2.07-6.65ZM94.45,49.71c8.04-8.05,21.1-8.05,29.15,0,6.96,6.96,7.9,17.65,2.82,25.62-.78,1.25-1.73,2.44-2.82,3.54-.6.6-1.22,1.15-1.87,1.65-.28.23-.57.45-.87.64l-1.49,1.05c-2.7,1.9-4.36,4.96-4.48,8.26l-1.7,46.79v.03c-.44,1.9-2.14,3.32-4.18,3.32h-.02c-2.1,0-3.85-1.5-4.23-3.49v-.02l-1.66-46.67c-.12-3.3-1.77-6.36-4.46-8.26l-1.45-1.02s0,0,0,0c-.29-.19-.57-.41-.86-.64-.65-.5-1.27-1.05-1.87-1.65-1.11-1.11-2.06-2.31-2.86-3.58-5.04-7.96-4.09-18.63,2.86-25.58ZM45.19,101.29h0c.22-.23.44-.44.68-.64,0,0,0,0,.02,0,.92-.65,1.84-1.3,2.78-1.91,5.43-2.86,12.31-2,16.88,2.57t.02.02c3.15,3.16,4.53,7.43,4.13,11.55-.23,2.42.45,4.84,2.08,6.64l19.94,22.17c1.68,1.68,1.68,4.42,0,6.1h0c-1.68,1.68-4.41,1.68-6.09,0l-22.2-19.91c-1.81-1.62-4.23-2.3-6.65-2.07-4.13.4-8.4-.97-11.56-4.12l-.02-.02c-5.62-5.62-5.62-14.74,0-20.36ZM23.51,163.92c.55-4.9,4.87-8.67,9.8-8.62,1.27.01,2.49.27,3.6.73.78.32,1.51.74,2.18,1.24,1.14.86,2.5,1.39,3.93,1.47l37.21,2h0l.47.03c2.16.23,3.85,2.06,3.85,4.29,0,2.38-1.93,4.31-4.31,4.31l-37.27,2c-1.44.08-2.78.64-3.93,1.51-1.63,1.22-3.65,1.94-5.84,1.94-.78,0-1.53-.09-2.26-.26-4.65-1.11-8.01-5.53-7.43-10.63Z"/>
  <path class="cls-1" d="M704.32,11.29c-29.79,0-51.49,7.85-64.5,23.33-12.37,14.72-18.64,36.06-18.64,63.42v19.63c0,27.56,6.19,48.9,18.38,63.42,13.01,15.48,34.79,23.33,64.76,23.33s51.49-7.85,64.5-23.33c12.37-14.72,18.64-36.06,18.64-63.42v-19.63c0-27.36-6.27-48.7-18.64-63.42-13.01-15.48-34.71-23.33-64.5-23.33ZM753.27,117.67c0,18.47-3.58,32.5-10.37,40.58-6.04,7.19-19.75,11.16-38.58,11.16s-32.71-3.86-38.84-11.15h0c-6.61-7.87-10.11-21.9-10.11-40.58v-19.63c0-18.47,3.58-32.5,10.37-40.58,6.04-7.19,19.75-11.16,38.58-11.16s32.45,3.86,38.58,11.16c6.78,8.07,10.37,22.1,10.37,40.57v19.63Z"/>
  <path class="cls-1" d="M792.85,10.95c.49-.46,1-1.12,1-2.23,0-2-1.57-3.57-3.86-3.57h-4.72v10.86h2.72v-3.72h1.43l1.86,3.72h3l-2.43-4.43c.37-.14.69-.37,1-.63ZM789.85,9.86h-1.86v-2.29h1.86c.77,0,1.14.37,1.14,1.14s-.37,1.14-1.14,1.14Z"/>
  <path class="cls-1" d="M789.28,0c-6.03,0-10.72,4.72-10.72,10.58s4.69,10.58,10.72,10.58,10.72-4.72,10.72-10.58-4.69-10.58-10.72-10.58ZM789.28,18.87c-4.46,0-8.15-3.72-8.15-8.29s3.69-8.29,8.15-8.29,8.15,3.72,8.15,8.29-3.69,8.29-8.15,8.29Z"/>
  <path class="cls-1" d="M339.12,204.43c28.32,0,48.95-7.29,61.31-21.65,11.76-13.66,17.72-33.46,17.72-58.85l-.11-109.67h-32.52l.13,109.67c0,17.14-3.41,30.16-9.85,37.66-5.74,6.68-18.77,10.35-36.67,10.35s-30.93-3.68-36.67-10.35c-6.45-7.49-9.85-20.51-9.85-37.66l.14-109.67h-32.52l-.11,109.67c0,25.39,5.96,45.19,17.72,58.85,12.36,14.37,32.99,21.65,61.31,21.65Z"/>
  <path class="cls-1" d="M595.65,171.31V14.25h-33.59v145.89c0,3.69.65,7.34,1.92,10.8l-1.69.62-.42-1.13-50.6-138.22c-5.92-15.41-9.65-20.91-32.27-20.91-32.52,0-32.52,16.59-32.52,33.11v157.06h33.59V55.58c0-3.69-.65-7.34-1.92-10.8v-.02s1.68-.62,1.68-.62l.24.64.85,2.32,2.91,7.94,47.03,128.48c5.92,15.41,9.65,20.91,32.27,20.91,32.52,0,32.52-16.59,32.52-33.11Z"/>
  <path class="cls-1" d="M293.24,232.99h-6.58v18.61c0,2.24-.45,3.88-1.34,4.92-.89,1.05-2.51,1.57-4.86,1.57-1.34,0-2.41-.18-3.21-.54-.8-.36-1.42-.85-1.87-1.47-.45-.61-.74-1.31-.88-2.09-.14-.78-.21-1.58-.21-2.39v-18.61h-6.58v18.61c0,4.08,1.11,7.1,3.33,9.07,2.22,1.97,5.36,2.95,9.41,2.95s7.12-.99,9.39-2.98c2.26-1.98,3.39-5,3.39-9.05v-18.61Z"/>
  <path class="cls-1" d="M317,243.11c-.59-.77-1.39-1.37-2.41-1.8-1.02-.43-2.33-.65-3.92-.65-1.26,0-2.49.29-3.69.88-1.2.59-2.18,1.5-2.93,2.72h-.13v-3.02h-5.66v21.66h5.95v-11.36c0-2.21.36-3.79,1.09-4.76.73-.96,1.9-1.45,3.52-1.45,1.4,0,2.38.44,2.95,1.32.57.88.86,2.21.86,4v12.23h5.95v-13.32c0-1.34-.12-2.56-.36-3.67-.24-1.1-.65-2.04-1.24-2.81Z"/>
  <rect class="cls-1" x="323.28" y="241.24" width="5.95" height="21.66"/>
  <rect class="cls-1" x="323.28" y="232.99" width="5.95" height="4.9"/>
  <polygon class="cls-1" points="342.77 256.04 342.69 256.04 338.12 241.24 331.88 241.24 339.29 262.91 345.91 262.91 353.25 241.24 347.34 241.24 342.77 256.04"/>
  <path class="cls-1" d="M361.12,262.66c1.37.56,2.9.84,4.61.84,2.46,0,4.55-.57,6.29-1.72,1.73-1.15,3.02-3,3.86-5.57h-5.24c-.2.67-.73,1.31-1.59,1.91-.87.6-1.9.9-3.1.9-1.67,0-2.96-.44-3.85-1.32-.89-.88-1.38-2.27-1.47-4.17h15.63c.11-1.68-.03-3.28-.42-4.82-.39-1.54-1.03-2.9-1.91-4.11-.88-1.2-2-2.16-3.37-2.87-1.37-.71-2.98-1.07-4.82-1.07-1.65,0-3.15.29-4.5.88-1.36.59-2.52,1.39-3.5,2.41-.98,1.02-1.73,2.23-2.26,3.62-.53,1.4-.8,2.91-.8,4.52s.26,3.21.78,4.61c.52,1.4,1.25,2.6,2.2,3.6.95,1.01,2.11,1.79,3.48,2.35ZM360.89,248.33c.15-.53.42-1.03.8-1.51.38-.48.88-.87,1.51-1.19.63-.32,1.42-.48,2.37-.48,1.45,0,2.54.39,3.25,1.17.71.78,1.21,1.93,1.49,3.44h-9.68c.03-.42.12-.89.27-1.42Z"/>
  <path class="cls-1" d="M385.72,253.15c0-.95.1-1.85.29-2.7.2-.85.52-1.59.98-2.22.46-.63,1.07-1.12,1.82-1.49.75-.36,1.68-.54,2.77-.54.36,0,.74.02,1.13.06.39.04.73.09,1.01.15v-5.53c-.42-.14-.85-.21-1.3-.21-.73,0-1.45.11-2.16.34-.71.22-1.38.54-1.99.94-.61.41-1.16.89-1.63,1.47-.47.57-.85,1.19-1.13,1.86h-.08v-4.02h-5.66v21.66h5.95v-9.76Z"/>
  <path class="cls-1" d="M412.96,251.7c-.64-.46-1.38-.83-2.2-1.11-.82-.28-1.67-.52-2.54-.71-.84-.2-1.66-.38-2.47-.54-.81-.17-1.53-.36-2.16-.57-.63-.21-1.14-.48-1.53-.82-.39-.33-.59-.77-.59-1.3,0-.45.11-.8.33-1.07.22-.26.5-.47.82-.61.32-.14.68-.23,1.07-.27.39-.04.75-.06,1.09-.06,1.06,0,1.98.2,2.76.61.78.41,1.22,1.18,1.3,2.33h5.66c-.11-1.34-.45-2.45-1.03-3.33-.57-.88-1.29-1.59-2.16-2.12-.87-.53-1.85-.91-2.95-1.13-1.1-.22-2.24-.34-3.42-.34s-2.32.1-3.44.31c-1.12.21-2.12.57-3.02,1.09-.89.52-1.61,1.23-2.16,2.14-.54.91-.82,2.05-.82,3.42,0,.95.19,1.75.59,2.41.39.66.91,1.2,1.55,1.63.64.43,1.38.78,2.2,1.05.82.27,1.67.5,2.53.69,1.06.22,2.01.44,2.85.65.84.21,1.54.44,2.12.69.57.25,1.01.54,1.32.86.31.32.46.71.46,1.15,0,.53-.13.97-.38,1.32-.25.35-.56.63-.94.84-.38.21-.8.36-1.26.46-.46.1-.9.15-1.32.15-.59,0-1.15-.07-1.7-.21-.54-.14-1.03-.36-1.45-.65-.42-.29-.76-.67-1.03-1.13-.27-.46-.4-1.01-.4-1.66h-5.66c.06,1.42.38,2.63.98,3.6.6.98,1.37,1.77,2.3,2.37.94.6,2,1.03,3.21,1.28,1.2.25,2.43.38,3.69.38s2.44-.13,3.63-.38c1.19-.25,2.24-.67,3.16-1.26.92-.59,1.67-1.36,2.24-2.33.57-.96.86-2.16.86-3.58,0-1-.2-1.85-.59-2.53-.39-.68-.91-1.26-1.55-1.72Z"/>
  <rect class="cls-1" x="418.74" y="232.99" width="5.95" height="4.9"/>
  <rect class="cls-1" x="418.74" y="241.24" width="5.95" height="21.66"/>
  <path class="cls-1" d="M444.76,260.14h.08v2.77h5.66v-29.92h-5.95v10.9h-.08c-.67-1.06-1.59-1.86-2.75-2.41-1.16-.54-2.38-.82-3.67-.82-1.59,0-2.99.31-4.19.94-1.2.63-2.2,1.46-3,2.49-.8,1.03-1.4,2.23-1.8,3.58-.4,1.36-.61,2.76-.61,4.21s.2,2.96.61,4.36c.41,1.4,1.01,2.63,1.8,3.71.8,1.08,1.8,1.93,3.02,2.58,1.22.64,2.65.96,4.29.96,1.4,0,2.67-.27,3.81-.8,1.14-.53,2.07-1.38,2.77-2.56ZM437.28,258.4c-.66-.4-1.2-.93-1.63-1.59-.43-.66-.75-1.4-.94-2.24-.2-.84-.29-1.68-.29-2.51,0-.89.09-1.75.27-2.58.18-.82.47-1.56.88-2.2.4-.64.94-1.16,1.61-1.55.67-.39,1.49-.59,2.47-.59s1.75.2,2.41.59c.66.39,1.19.9,1.59,1.53.41.63.69,1.36.86,2.2.17.84.25,1.69.25,2.56s-.08,1.76-.25,2.6c-.17.84-.45,1.59-.84,2.24s-.92,1.18-1.57,1.57c-.66.39-1.47.59-2.45.59-.92,0-1.71-.2-2.37-.61Z"/>
  <path class="cls-1" d="M474.43,258.09v-11.27c0-1.28-.29-2.33-.88-3.14-.59-.81-1.34-1.44-2.26-1.89-.92-.45-1.94-.75-3.06-.9-1.12-.15-2.22-.23-3.31-.23-1.23,0-2.43.12-3.6.36-1.17.24-2.24.64-3.19,1.19-.95.56-1.73,1.3-2.35,2.22-.61.92-.96,2.08-1.05,3.48h5.95c.11-1.17.51-2.01,1.19-2.51.68-.5,1.6-.75,2.74-.75.53,0,1.03.03,1.49.11.46.07.87.21,1.22.42.35.21.63.5.84.88.21.38.31.89.31,1.53s-.2,1.08-.59,1.4c-.39.32-.92.57-1.57.73-.66.17-1.4.29-2.24.38-.84.08-1.72.2-2.64.34-.92.14-1.82.33-2.7.57-.88.24-1.67.59-2.37,1.07-.7.48-1.26,1.11-1.68,1.91-.42.8-.63,1.81-.63,3.04,0,1.12.19,2.08.56,2.89.38.81.9,1.48,1.57,2.01.67.53,1.45.93,2.35,1.19.89.27,1.86.4,2.89.4,1.34,0,2.65-.2,3.94-.61,1.28-.4,2.4-1.1,3.35-2.07.03.36.08.72.15,1.07.07.35.16.69.27,1.03h6.03c-.28-.45-.48-1.12-.59-2.01-.11-.89-.17-1.83-.17-2.81ZM468.48,254.53c0,.33-.04.78-.1,1.34-.07.56-.26,1.11-.57,1.66-.31.54-.78,1.01-1.42,1.4-.64.39-1.55.59-2.72.59-.48,0-.94-.04-1.38-.13-.45-.08-.84-.23-1.17-.44-.34-.21-.6-.49-.8-.84-.2-.35-.29-.8-.29-1.36s.1-.99.29-1.36c.2-.38.45-.68.78-.92.32-.24.69-.43,1.11-.57.42-.14.87-.25,1.34-.34.45-.08.92-.15,1.4-.21.49-.06.95-.13,1.38-.21.43-.08.84-.19,1.22-.31.38-.13.69-.3.94-.52v2.22Z"/>
  <path class="cls-1" d="M494.21,243.88h-.08c-.67-1.06-1.59-1.86-2.74-2.41-1.16-.54-2.38-.82-3.67-.82-1.59,0-2.99.31-4.19.94-1.2.63-2.2,1.46-3,2.49-.8,1.03-1.4,2.23-1.8,3.58-.4,1.36-.61,2.76-.61,4.21s.2,2.96.61,4.36c.4,1.4,1.01,2.63,1.8,3.71.8,1.08,1.8,1.93,3.02,2.58,1.22.64,2.65.96,4.3.96,1.4,0,2.67-.27,3.81-.8,1.14-.53,2.07-1.38,2.77-2.56h.08v2.77h5.66v-29.92h-5.95v10.9ZM494.17,254.61c-.17.84-.45,1.59-.84,2.24-.39.66-.92,1.18-1.57,1.57-.66.39-1.47.59-2.45.59-.92,0-1.71-.2-2.37-.61-.66-.4-1.2-.93-1.63-1.59-.43-.66-.75-1.4-.94-2.24-.2-.84-.29-1.68-.29-2.51,0-.89.09-1.75.27-2.58.18-.82.47-1.56.88-2.2.4-.64.94-1.16,1.61-1.55.67-.39,1.49-.59,2.47-.59s1.75.2,2.41.59c.66.39,1.19.9,1.59,1.53.41.63.69,1.36.86,2.2.17.84.25,1.69.25,2.56s-.08,1.76-.25,2.6Z"/>
  <path class="cls-1" d="M522.85,244.6c-.88-1.2-2-2.16-3.37-2.87-1.37-.71-2.97-1.07-4.82-1.07-1.65,0-3.15.29-4.5.88-1.36.59-2.52,1.39-3.5,2.41-.98,1.02-1.73,2.23-2.26,3.62-.53,1.4-.8,2.91-.8,4.52s.26,3.21.78,4.61c.52,1.4,1.25,2.6,2.2,3.6.95,1.01,2.11,1.79,3.48,2.35,1.37.56,2.9.84,4.61.84,2.46,0,4.55-.57,6.29-1.72,1.73-1.15,3.02-3,3.86-5.57h-5.24c-.2.67-.73,1.31-1.59,1.91-.87.6-1.9.9-3.1.9-1.68,0-2.96-.44-3.86-1.32-.89-.88-1.38-2.27-1.47-4.17h15.63c.11-1.68-.03-3.28-.42-4.82-.39-1.54-1.03-2.9-1.91-4.11ZM509.55,249.75c.03-.42.12-.89.27-1.42.15-.53.42-1.03.8-1.51.38-.48.88-.87,1.51-1.19.63-.32,1.42-.48,2.37-.48,1.45,0,2.54.39,3.25,1.17.71.78,1.21,1.93,1.49,3.44h-9.68Z"/>
  <path class="cls-1" d="M559.27,256.58c-1.13,1.24-2.7,1.86-4.71,1.86-1.48,0-2.74-.29-3.77-.86-1.03-.57-1.87-1.33-2.51-2.28-.64-.95-1.11-2.02-1.4-3.2-.29-1.19-.44-2.41-.44-3.67s.15-2.58.44-3.81c.29-1.23.76-2.33,1.4-3.29.64-.96,1.48-1.73,2.51-2.3,1.03-.57,2.29-.86,3.77-.86.81,0,1.59.13,2.33.4.74.27,1.4.64,1.99,1.11.59.48,1.07,1.03,1.47,1.66.39.63.64,1.32.75,2.07h6.37c-.2-1.73-.67-3.27-1.42-4.61-.75-1.34-1.71-2.47-2.87-3.37-1.16-.91-2.47-1.6-3.94-2.07-1.47-.47-3.02-.71-4.67-.71-2.32,0-4.39.41-6.2,1.22-1.82.81-3.35,1.93-4.61,3.35-1.26,1.42-2.22,3.1-2.89,5.03-.67,1.93-1.01,4-1.01,6.2s.34,4.18,1.01,6.08c.67,1.9,1.63,3.55,2.89,4.95,1.26,1.4,2.79,2.5,4.61,3.31,1.82.81,3.88,1.22,6.2,1.22,1.84,0,3.53-.29,5.07-.86,1.54-.57,2.88-1.39,4.02-2.45,1.14-1.06,2.07-2.35,2.77-3.86.7-1.51,1.13-3.2,1.3-5.07h-6.37c-.25,1.98-.94,3.6-2.07,4.84Z"/>
  <path class="cls-1" d="M590.26,244.14c-.98-.99-2.16-1.76-3.54-2.3-1.38-.54-2.93-.82-4.63-.82s-3.24.27-4.61.82c-1.37.54-2.54,1.31-3.52,2.3-.98.99-1.73,2.19-2.26,3.6-.53,1.41-.8,2.98-.8,4.71s.27,3.3.8,4.69c.53,1.4,1.29,2.59,2.26,3.58.98.99,2.15,1.76,3.52,2.3,1.37.54,2.9.82,4.61.82s3.25-.27,4.63-.82c1.38-.54,2.56-1.31,3.54-2.3.98-.99,1.73-2.19,2.26-3.58.53-1.4.8-2.96.8-4.69s-.27-3.3-.8-4.71c-.53-1.41-1.28-2.61-2.26-3.6ZM587.12,254.99c-.17.82-.45,1.57-.86,2.22-.41.66-.95,1.18-1.63,1.57-.68.39-1.53.59-2.54.59s-1.84-.2-2.51-.59c-.67-.39-1.21-.92-1.61-1.57-.41-.66-.69-1.4-.86-2.22-.17-.82-.25-1.67-.25-2.54s.08-1.72.25-2.56c.17-.84.45-1.58.86-2.22.4-.64.94-1.17,1.61-1.57.67-.4,1.51-.61,2.51-.61s1.85.2,2.54.61c.68.41,1.23.93,1.63,1.57.4.64.69,1.38.86,2.22s.25,1.69.25,2.56-.08,1.71-.25,2.54Z"/>
  <path class="cls-1" d="M622.84,246.13c.49.28.86.66,1.11,1.13.25.47.4,1.03.46,1.68.06.64.08,1.33.08,2.05v12.28h5.95v-14.5c0-1.4-.2-2.59-.59-3.58-.39-.99-.94-1.8-1.63-2.41-.7-.61-1.54-1.06-2.51-1.34-.98-.28-2.04-.42-3.19-.42-1.51,0-2.81.36-3.92,1.09-1.1.73-1.98,1.57-2.62,2.51-.59-1.31-1.45-2.24-2.58-2.79-1.13-.54-2.38-.82-3.75-.82s-2.69.31-3.79.92c-1.1.62-2.05,1.48-2.83,2.6h-.08v-2.93h-5.62v21.66h5.95v-12.57c0-1.06.15-1.92.46-2.58.31-.66.68-1.16,1.11-1.51.43-.35.87-.59,1.32-.71.45-.13.82-.19,1.13-.19.95,0,1.67.16,2.16.48.49.32.84.75,1.05,1.28.21.53.33,1.12.36,1.76.03.64.04,1.27.04,1.89v12.15h5.95v-12.07c0-.67.05-1.33.15-1.99.1-.66.29-1.24.59-1.76s.7-.94,1.21-1.26c.52-.32,1.2-.48,2.03-.48s1.5.14,1.99.42Z"/>
  <path class="cls-1" d="M649.68,260.25h.13v3.02h5.66v-21.66h-5.95v11.36c0,2.21-.36,3.79-1.09,4.76-.73.96-1.9,1.45-3.52,1.45-1.4,0-2.38-.44-2.95-1.32-.57-.88-.86-2.21-.86-4v-12.24h-5.95v13.33c0,1.34.12,2.56.36,3.67.24,1.1.65,2.04,1.24,2.81.59.77,1.39,1.37,2.41,1.8,1.02.43,2.33.65,3.92.65,1.26,0,2.49-.29,3.69-.88,1.2-.59,2.18-1.49,2.93-2.72Z"/>
  <path class="cls-1" d="M673.5,247.03c.57.88.86,2.21.86,4v12.24h5.95v-13.33c0-1.34-.12-2.56-.36-3.67-.24-1.1-.65-2.04-1.24-2.81-.59-.77-1.39-1.37-2.41-1.8-1.02-.43-2.33-.65-3.92-.65-1.26,0-2.49.29-3.69.88-1.2.59-2.18,1.49-2.93,2.72h-.13v-3.02h-5.66v21.66h5.95v-11.36c0-2.21.36-3.79,1.09-4.76.73-.96,1.9-1.45,3.52-1.45,1.4,0,2.38.44,2.95,1.32Z"/>
  <rect class="cls-1" x="685.01" y="241.6" width="5.95" height="21.66"/>
  <rect class="cls-1" x="685.01" y="233.35" width="5.95" height="4.9"/>
  <path class="cls-1" d="M697.24,235.11v6.5h-3.6v3.98h3.6v12.78c0,1.09.18,1.97.54,2.64.36.67.86,1.19,1.49,1.57.63.38,1.36.63,2.18.75.82.13,1.7.19,2.62.19.59,0,1.19-.01,1.8-.04.61-.03,1.17-.08,1.68-.17v-4.65c-.56.11-1.17.17-1.84.17-1.01,0-1.68-.17-2.01-.5-.33-.33-.5-1-.5-2.01v-10.73h4.36v-3.98h-4.36v-6.5h-5.95Z"/>
  <polygon class="cls-1" points="727.62 232.97 721.04 232.97 717.02 238.92 721.17 238.92 727.62 232.97"/>
  <path class="cls-1" d="M729.84,258.45v-11.27c0-1.28-.29-2.33-.88-3.14-.59-.81-1.34-1.44-2.26-1.89-.92-.45-1.94-.75-3.06-.9-1.12-.15-2.22-.23-3.31-.23-1.23,0-2.43.12-3.6.36s-2.24.64-3.18,1.19c-.95.56-1.73,1.3-2.35,2.22-.61.92-.96,2.08-1.05,3.48h5.95c.11-1.17.51-2.01,1.2-2.51.68-.5,1.6-.75,2.74-.75.53,0,1.03.04,1.49.1.46.07.87.21,1.21.42.35.21.63.5.84.88.21.38.31.89.31,1.53s-.2,1.08-.59,1.4c-.39.32-.92.57-1.57.73-.66.17-1.4.29-2.24.38-.84.08-1.72.2-2.64.34-.92.14-1.82.33-2.7.57-.88.24-1.67.59-2.37,1.07-.7.48-1.26,1.11-1.68,1.91-.42.8-.63,1.81-.63,3.04,0,1.12.19,2.08.56,2.89.38.81.9,1.48,1.57,2.01.67.53,1.45.93,2.35,1.19.89.26,1.86.4,2.89.4,1.34,0,2.65-.2,3.94-.61s2.4-1.1,3.35-2.08c.03.36.08.72.15,1.07.07.35.16.69.27,1.03h6.03c-.28-.45-.47-1.12-.59-2.01-.11-.89-.17-1.83-.17-2.81ZM723.89,254.88c0,.34-.04.78-.1,1.34-.07.56-.26,1.11-.57,1.66-.31.54-.78,1.01-1.42,1.4-.64.39-1.55.59-2.72.59-.48,0-.94-.04-1.38-.13-.45-.08-.84-.23-1.17-.44-.34-.21-.6-.49-.8-.84-.2-.35-.29-.8-.29-1.36s.1-.98.29-1.36c.2-.38.45-.68.77-.92.32-.24.69-.43,1.11-.57.42-.14.87-.25,1.34-.33.45-.08.91-.15,1.4-.21.49-.06.95-.13,1.38-.21.43-.08.84-.19,1.21-.31.38-.13.69-.3.94-.52v2.22Z"/>
  <path class="cls-1" d="M744.95,241.35c-.71.22-1.38.54-1.99.94-.61.41-1.16.9-1.63,1.47-.47.57-.85,1.19-1.13,1.87h-.08v-4.02h-5.66v21.66h5.95v-9.76c0-.95.1-1.85.29-2.7.2-.85.52-1.59.98-2.22.46-.63,1.07-1.12,1.82-1.49.75-.36,1.68-.55,2.77-.55.36,0,.74.02,1.13.06.39.04.73.09,1.01.15v-5.53c-.42-.14-.85-.21-1.3-.21-.73,0-1.45.11-2.16.34Z"/>
  <rect class="cls-1" x="750.92" y="233.35" width="5.95" height="4.9"/>
  <rect class="cls-1" x="750.92" y="241.6" width="5.95" height="21.66"/>
  <path class="cls-1" d="M781.01,258.45v-11.27c0-1.28-.29-2.33-.88-3.14-.59-.81-1.34-1.44-2.26-1.89-.92-.45-1.94-.75-3.06-.9-1.12-.15-2.22-.23-3.31-.23-1.23,0-2.43.12-3.6.36-1.17.24-2.24.64-3.18,1.19-.95.56-1.73,1.3-2.35,2.22-.61.92-.96,2.08-1.05,3.48h5.95c.11-1.17.51-2.01,1.19-2.51.69-.5,1.6-.75,2.75-.75.53,0,1.03.04,1.49.1.46.07.87.21,1.22.42.35.21.63.5.84.88.21.38.31.89.31,1.53s-.2,1.08-.59,1.4c-.39.32-.92.57-1.57.73-.66.17-1.4.29-2.24.38-.84.08-1.72.2-2.64.34-.92.14-1.82.33-2.7.57-.88.24-1.67.59-2.37,1.07-.7.48-1.26,1.11-1.68,1.91-.42.8-.63,1.81-.63,3.04,0,1.12.19,2.08.57,2.89.38.81.9,1.48,1.57,2.01s1.45.93,2.35,1.19c.89.26,1.86.4,2.89.4,1.34,0,2.65-.2,3.94-.61,1.28-.4,2.4-1.1,3.35-2.08.03.36.08.72.15,1.07.07.35.16.69.27,1.03h6.03c-.28-.45-.48-1.12-.59-2.01-.11-.89-.17-1.83-.17-2.81ZM775.06,254.88c0,.34-.04.78-.1,1.34-.07.56-.26,1.11-.57,1.66-.31.54-.78,1.01-1.43,1.4-.64.39-1.55.59-2.72.59-.48,0-.94-.04-1.38-.13-.45-.08-.84-.23-1.17-.44-.34-.21-.6-.49-.8-.84-.2-.35-.29-.8-.29-1.36s.1-.98.29-1.36c.19-.38.45-.68.77-.92.32-.24.69-.43,1.11-.57.42-.14.87-.25,1.34-.33.45-.08.92-.15,1.4-.21.49-.06.95-.13,1.38-.21.43-.08.84-.19,1.22-.31.38-.13.69-.3.94-.52v2.22Z"/>
  <path class="cls-1" d="M281.85,281.36h-.08c-.67-1.07-1.59-1.87-2.76-2.42-1.16-.55-2.39-.82-3.68-.82-1.6,0-3,.32-4.21.95-1.21.63-2.21,1.47-3.01,2.5-.8,1.04-1.4,2.24-1.81,3.6-.41,1.36-.61,2.77-.61,4.23s.2,2.97.61,4.38c.41,1.4,1.01,2.64,1.81,3.72.8,1.08,1.81,1.94,3.03,2.59,1.22.65,2.66.97,4.31.97,1.4,0,2.68-.27,3.83-.8,1.15-.53,2.08-1.39,2.78-2.57h.08v2.78h5.68v-30.05h-5.98v10.94ZM281.81,292.13c-.17.84-.45,1.59-.84,2.25-.39.66-.92,1.19-1.58,1.58-.66.39-1.48.59-2.46.59-.93,0-1.72-.2-2.38-.61-.66-.41-1.21-.94-1.64-1.6-.44-.66-.75-1.41-.95-2.25-.2-.84-.29-1.68-.29-2.53,0-.9.09-1.76.27-2.59.18-.83.48-1.56.88-2.21.41-.65.95-1.16,1.62-1.56.67-.39,1.5-.59,2.48-.59s1.76.2,2.42.59c.66.39,1.19.9,1.6,1.54s.69,1.37.86,2.21c.17.84.25,1.7.25,2.57s-.08,1.77-.25,2.61Z"/>
  <path class="cls-1" d="M311.86,295.63v-11.32c0-1.29-.29-2.34-.88-3.16-.59-.81-1.35-1.45-2.27-1.89-.92-.45-1.95-.75-3.07-.9-1.12-.15-2.23-.23-3.32-.23-1.24,0-2.44.12-3.62.36-1.18.24-2.24.64-3.2,1.2-.95.56-1.74,1.3-2.36,2.23-.62.93-.97,2.09-1.05,3.49h5.98c.11-1.18.51-2.02,1.2-2.52.69-.51,1.61-.76,2.76-.76.53,0,1.03.04,1.49.11.46.07.87.21,1.22.42s.63.5.84.88c.21.38.32.89.32,1.54s-.2,1.09-.59,1.41c-.39.32-.92.57-1.58.74-.66.17-1.41.3-2.25.38-.84.08-1.73.2-2.65.34-.93.14-1.83.33-2.71.57-.88.24-1.68.6-2.38,1.07-.7.48-1.26,1.12-1.68,1.92-.42.8-.63,1.82-.63,3.05,0,1.12.19,2.09.57,2.9.38.81.91,1.49,1.58,2.02.67.53,1.46.93,2.36,1.2.9.27,1.86.4,2.9.4,1.35,0,2.67-.2,3.96-.61,1.29-.41,2.41-1.1,3.37-2.08.03.36.08.72.15,1.07.07.35.16.69.27,1.03h6.06c-.28-.45-.48-1.12-.59-2.02-.11-.9-.17-1.84-.17-2.82ZM305.88,292.05c0,.34-.04.79-.11,1.35-.07.56-.26,1.12-.57,1.66-.31.55-.79,1.02-1.43,1.41-.64.39-1.56.59-2.73.59-.48,0-.94-.04-1.39-.13-.45-.08-.84-.23-1.18-.44-.34-.21-.6-.49-.8-.84-.2-.35-.3-.81-.3-1.37,0-.53.1-.99.3-1.37s.46-.69.78-.93c.32-.24.69-.43,1.11-.57.42-.14.87-.25,1.35-.34.45-.08.92-.15,1.41-.21s.95-.13,1.39-.21c.43-.08.84-.19,1.22-.32.38-.13.69-.3.95-.53v2.23Z"/>
  <path class="cls-1" d="M351.82,296.88c-.07-.66-.12-1.31-.15-1.95-.03-.64-.06-1.2-.08-1.68-.06-.75-.16-1.5-.31-2.24-.15-.74-.4-1.43-.73-2.07-.33-.64-.77-1.19-1.3-1.66-.53-.46-1.2-.8-2.01-1.03v-.08c1.68-.67,2.88-1.65,3.63-2.93.74-1.29,1.11-2.81,1.11-4.57,0-1.12-.2-2.18-.61-3.18s-.99-1.89-1.76-2.64c-.77-.75-1.69-1.35-2.77-1.78-1.07-.43-2.28-.65-3.62-.65h-16.13v29.92h6.58v-11.69h6.58c1.65,0,2.83.36,3.56,1.09.73.73,1.2,1.87,1.43,3.44.08.59.15,1.21.19,1.87.04.66.1,1.3.17,1.93.07.63.15,1.23.25,1.8.1.57.24,1.1.44,1.57h6.58c-.31-.42-.54-.94-.69-1.55-.15-.61-.27-1.25-.34-1.91ZM344.24,282.95c-.77.67-1.89,1.01-3.37,1.01h-7.21v-8.42h7.21c1.48,0,2.6.33,3.37.98.77.66,1.15,1.71,1.15,3.16s-.38,2.6-1.15,3.27Z"/>
  <path class="cls-1" d="M376.82,286.13c-.39-1.54-1.03-2.9-1.91-4.11-.88-1.2-2-2.16-3.37-2.87-1.37-.71-2.97-1.07-4.82-1.07-1.65,0-3.15.29-4.5.88-1.36.59-2.52,1.39-3.5,2.41-.98,1.02-1.73,2.23-2.26,3.62-.53,1.4-.8,2.91-.8,4.53s.26,3.21.77,4.61c.52,1.4,1.25,2.6,2.2,3.6.95,1.01,2.11,1.79,3.48,2.35,1.37.56,2.91.84,4.61.84,2.46,0,4.55-.57,6.29-1.72,1.73-1.15,3.02-3,3.86-5.57h-5.24c-.2.67-.73,1.31-1.59,1.91-.87.6-1.9.9-3.1.9-1.68,0-2.96-.44-3.86-1.32-.89-.88-1.38-2.27-1.47-4.17h15.63c.11-1.68-.03-3.28-.42-4.82ZM361.61,287.18c.03-.42.12-.89.27-1.42.15-.53.42-1.03.8-1.51.38-.47.88-.87,1.51-1.19.63-.32,1.42-.48,2.37-.48,1.45,0,2.53.39,3.25,1.17.71.78,1.21,1.93,1.49,3.44h-9.68Z"/>
  <path class="cls-1" d="M395.93,281.57h-.08c-.73-1.26-1.63-2.15-2.7-2.68-1.08-.53-2.33-.8-3.75-.8-1.51,0-2.84.29-4,.88-1.16.59-2.13,1.38-2.91,2.37-.78.99-1.38,2.14-1.78,3.44-.41,1.3-.61,2.65-.61,4.04,0,1.48.17,2.88.52,4.21.35,1.33.9,2.49,1.66,3.48.75.99,1.72,1.77,2.89,2.35,1.17.57,2.57.86,4.19.86,1.31,0,2.56-.27,3.75-.82,1.19-.54,2.1-1.39,2.74-2.54h.08v2.85c.03,1.56-.35,2.85-1.13,3.85-.78,1.01-2,1.51-3.65,1.51-1.06,0-2-.22-2.81-.65-.81-.43-1.36-1.21-1.63-2.33h-5.91c.08,1.23.43,2.28,1.03,3.16.6.88,1.36,1.6,2.26,2.16.91.56,1.91.97,3.02,1.24,1.1.26,2.19.4,3.25.4,1.65,0,3.07-.15,4.27-.46,1.2-.31,2.22-.72,3.06-1.24.84-.52,1.51-1.1,2.01-1.76.5-.66.89-1.34,1.17-2.05.28-.71.47-1.42.57-2.14.1-.71.15-1.36.15-1.95v-20.28h-5.66v2.89ZM395.61,291.48c-.21.71-.52,1.35-.94,1.91-.42.56-.95,1.01-1.59,1.34-.64.34-1.38.5-2.22.5-.92,0-1.69-.19-2.3-.59-.62-.39-1.11-.89-1.49-1.51-.38-.61-.64-1.31-.8-2.07-.15-.77-.23-1.54-.23-2.33s.09-1.59.27-2.33c.18-.74.47-1.4.88-1.97.4-.57.91-1.03,1.51-1.36.6-.34,1.32-.5,2.16-.5.95,0,1.75.18,2.41.54.66.36,1.18.85,1.57,1.47.39.62.67,1.33.84,2.14.17.81.25,1.65.25,2.52,0,.78-.11,1.53-.31,2.24Z"/>
  <rect class="cls-1" x="406.53" y="270.42" width="5.95" height="4.9"/>
  <rect class="cls-1" x="406.53" y="278.67" width="5.95" height="21.67"/>
  <path class="cls-1" d="M422.24,270.88c-.61.31-1.12.71-1.51,1.19-.39.49-.7,1.03-.92,1.63-.22.6-.4,1.21-.54,1.82h2.56c.14-.53.33-.96.57-1.28.24-.32.63-.48,1.19-.48.47,0,.95.07,1.42.21.47.14.98.31,1.51.5.53.17,1.07.33,1.63.48.56.15,1.16.23,1.8.23.87,0,1.56-.16,2.1-.48.53-.32.96-.72,1.3-1.2.33-.47.6-.99.8-1.55.2-.56.36-1.07.5-1.55h-2.89c.03.39-.1.73-.38,1.03-.28.29-.74.44-1.38.44-.48,0-.94-.08-1.4-.23-.46-.15-.92-.33-1.36-.52-.45-.17-.89-.33-1.32-.48-.43-.15-.89-.23-1.36-.23-.92,0-1.69.15-2.31.46Z"/>
  <path class="cls-1" d="M436.61,295.52v-11.27c0-1.28-.29-2.33-.88-3.14-.59-.81-1.34-1.44-2.26-1.89-.92-.45-1.94-.75-3.06-.9-1.12-.15-2.22-.23-3.31-.23-1.23,0-2.43.12-3.6.36-1.17.24-2.23.64-3.18,1.19-.95.56-1.73,1.3-2.35,2.22-.61.92-.96,2.08-1.05,3.48h5.95c.11-1.17.51-2.01,1.19-2.51.68-.5,1.6-.75,2.74-.75.53,0,1.03.04,1.49.1.46.07.87.21,1.22.42.35.21.63.5.84.88.21.38.31.89.31,1.53s-.2,1.08-.59,1.4c-.39.32-.91.57-1.57.73-.66.17-1.4.29-2.24.38-.84.08-1.72.2-2.64.34-.92.14-1.82.33-2.7.57-.88.24-1.67.59-2.37,1.07-.7.47-1.26,1.11-1.68,1.91-.42.8-.63,1.81-.63,3.04,0,1.12.19,2.08.57,2.89.38.81.9,1.48,1.57,2.01.67.53,1.45.93,2.35,1.19.89.27,1.86.4,2.89.4,1.34,0,2.65-.2,3.94-.61,1.28-.41,2.4-1.1,3.35-2.07.03.36.08.72.15,1.07.07.35.16.69.27,1.03h6.03c-.28-.45-.48-1.12-.59-2.01-.11-.89-.17-1.83-.17-2.81ZM430.66,291.96c0,.34-.04.78-.1,1.34-.07.56-.26,1.11-.57,1.66-.31.54-.78,1.01-1.43,1.4-.64.39-1.55.59-2.72.59-.47,0-.94-.04-1.38-.13-.45-.08-.84-.23-1.17-.44-.34-.21-.6-.49-.8-.84-.2-.35-.29-.8-.29-1.36,0-.53.1-.98.29-1.36.19-.38.45-.68.77-.92.32-.24.69-.43,1.11-.57.42-.14.86-.25,1.34-.34.45-.08.91-.15,1.4-.21.49-.06.95-.13,1.38-.21.43-.08.84-.19,1.21-.31.38-.13.69-.3.94-.52v2.22Z"/>
  <path class="cls-1" d="M459.91,281.21c-.98-.99-2.16-1.76-3.54-2.31-1.38-.54-2.93-.82-4.63-.82s-3.24.27-4.61.82c-1.37.55-2.54,1.31-3.52,2.31-.98.99-1.73,2.19-2.26,3.6-.53,1.41-.8,2.98-.8,4.71s.27,3.3.8,4.69c.53,1.4,1.29,2.59,2.26,3.58.98.99,2.15,1.76,3.52,2.3,1.37.55,2.91.82,4.61.82s3.25-.27,4.63-.82c1.38-.54,2.56-1.31,3.54-2.3.98-.99,1.73-2.19,2.26-3.58.53-1.4.8-2.96.8-4.69s-.27-3.3-.8-4.71c-.53-1.41-1.28-2.61-2.26-3.6ZM456.77,292.06c-.17.82-.45,1.57-.86,2.22-.41.66-.95,1.18-1.64,1.57-.68.39-1.53.59-2.53.59s-1.84-.19-2.51-.59c-.67-.39-1.21-.92-1.61-1.57-.41-.66-.69-1.4-.86-2.22-.17-.82-.25-1.67-.25-2.54s.08-1.72.25-2.56c.17-.84.45-1.58.86-2.22.4-.64.94-1.17,1.61-1.57.67-.4,1.51-.61,2.51-.61s1.85.2,2.53.61c.69.41,1.23.93,1.64,1.57.4.64.69,1.38.86,2.22.17.84.25,1.69.25,2.56s-.08,1.71-.25,2.54Z"/>
  <path class="cls-1" d="M494.21,282.03h-.08c-.67-1.06-1.59-1.86-2.74-2.41-1.16-.54-2.38-.82-3.67-.82-1.59,0-2.99.31-4.19.94-1.2.63-2.2,1.46-3,2.49-.8,1.03-1.4,2.23-1.8,3.58-.4,1.36-.61,2.76-.61,4.21s.2,2.96.61,4.36c.4,1.4,1.01,2.63,1.8,3.71.8,1.08,1.8,1.93,3.02,2.58,1.21.64,2.65.96,4.29.96,1.4,0,2.67-.26,3.81-.8,1.15-.53,2.07-1.38,2.77-2.56h.08v2.77h5.66v-29.92h-5.95v10.9ZM494.17,292.75c-.17.84-.45,1.59-.84,2.24-.39.66-.92,1.18-1.57,1.57-.66.39-1.47.59-2.45.59-.92,0-1.71-.2-2.37-.61-.66-.4-1.2-.93-1.63-1.59-.43-.66-.75-1.4-.94-2.24-.2-.84-.29-1.68-.29-2.51,0-.89.09-1.75.27-2.58s.47-1.56.88-2.2c.4-.64.94-1.16,1.61-1.55.67-.39,1.49-.59,2.47-.59s1.75.2,2.41.59c.66.39,1.19.9,1.59,1.53.41.63.69,1.36.86,2.2.17.84.25,1.69.25,2.56s-.08,1.76-.25,2.6Z"/>
  <path class="cls-1" d="M524.76,286.84c-.39-1.54-1.03-2.9-1.91-4.11-.88-1.2-2-2.16-3.37-2.87-1.37-.71-2.98-1.07-4.82-1.07-1.65,0-3.15.29-4.5.88-1.36.59-2.52,1.39-3.5,2.41-.98,1.02-1.73,2.23-2.26,3.62-.53,1.4-.8,2.91-.8,4.52s.26,3.21.78,4.61c.52,1.4,1.25,2.6,2.2,3.6.95,1.01,2.11,1.79,3.48,2.35,1.37.56,2.9.84,4.61.84,2.46,0,4.55-.57,6.29-1.72,1.73-1.15,3.02-3,3.85-5.57h-5.24c-.2.67-.73,1.31-1.59,1.91-.87.6-1.9.9-3.1.9-1.67,0-2.96-.44-3.85-1.32-.89-.88-1.38-2.27-1.47-4.17h15.63c.11-1.68-.03-3.28-.42-4.82ZM509.55,287.89c.03-.42.12-.89.27-1.42.15-.53.42-1.03.8-1.51.38-.48.88-.87,1.51-1.19.63-.32,1.42-.48,2.37-.48,1.45,0,2.54.39,3.25,1.17.71.78,1.21,1.93,1.49,3.44h-9.68Z"/>
  <path class="cls-1" d="M559.1,294.37c-1.13,1.24-2.7,1.86-4.71,1.86-1.48,0-2.74-.29-3.77-.86-1.03-.57-1.87-1.33-2.52-2.28-.64-.95-1.11-2.02-1.4-3.21-.29-1.19-.44-2.41-.44-3.67s.15-2.58.44-3.81c.29-1.23.76-2.33,1.4-3.29.64-.96,1.48-1.73,2.52-2.31,1.03-.57,2.29-.86,3.77-.86.81,0,1.59.13,2.33.4.74.26,1.4.64,1.99,1.11.59.48,1.08,1.03,1.47,1.66.39.63.64,1.32.75,2.07h6.37c-.2-1.73-.67-3.27-1.42-4.61-.75-1.34-1.71-2.46-2.87-3.37-1.16-.91-2.47-1.6-3.94-2.07-1.47-.47-3.02-.71-4.67-.71-2.32,0-4.39.4-6.2,1.21-1.82.81-3.35,1.93-4.61,3.35-1.26,1.42-2.22,3.1-2.89,5.03-.67,1.93-1.01,4-1.01,6.2s.34,4.18,1.01,6.08c.67,1.9,1.63,3.55,2.89,4.95,1.26,1.4,2.79,2.5,4.61,3.31,1.82.81,3.88,1.21,6.2,1.21,1.84,0,3.53-.29,5.07-.86,1.54-.57,2.88-1.39,4.02-2.45,1.14-1.06,2.07-2.35,2.77-3.86.7-1.51,1.13-3.2,1.3-5.07h-6.37c-.25,1.98-.94,3.6-2.07,4.84Z"/>
  <path class="cls-1" d="M590.13,281.25c-.59-.77-1.39-1.37-2.41-1.8-1.02-.43-2.33-.65-3.92-.65-1.12,0-2.26.29-3.44.88-1.17.59-2.14,1.5-2.89,2.72h-.13v-11.27h-5.95v29.92h5.95v-11.36c0-2.21.36-3.79,1.09-4.76.73-.96,1.9-1.45,3.52-1.45,1.4,0,2.38.44,2.95,1.32.57.88.86,2.21.86,4v12.24h5.95v-13.32c0-1.34-.12-2.56-.36-3.67-.24-1.1-.65-2.04-1.24-2.81Z"/>
  <path class="cls-1" d="M615.69,296.23v-11.27c0-1.28-.29-2.33-.88-3.14-.59-.81-1.34-1.44-2.26-1.89-.92-.45-1.94-.75-3.06-.9-1.12-.15-2.22-.23-3.31-.23-1.23,0-2.43.12-3.6.36-1.17.24-2.24.64-3.18,1.19-.95.56-1.73,1.3-2.35,2.22-.61.92-.96,2.08-1.05,3.48h5.95c.11-1.17.51-2.01,1.2-2.51.68-.5,1.6-.75,2.74-.75.53,0,1.03.03,1.49.1.46.07.87.21,1.22.42.35.21.63.5.84.88.21.38.31.89.31,1.53s-.2,1.08-.59,1.4c-.39.32-.92.57-1.57.73-.66.17-1.4.29-2.24.38-.84.08-1.72.2-2.64.34-.92.14-1.82.33-2.7.57-.88.24-1.67.59-2.37,1.07-.7.47-1.26,1.11-1.68,1.91-.42.8-.63,1.81-.63,3.04,0,1.12.19,2.08.56,2.89.38.81.9,1.48,1.57,2.01.67.53,1.45.93,2.35,1.19.89.27,1.86.4,2.89.4,1.34,0,2.65-.2,3.94-.61,1.28-.4,2.4-1.1,3.35-2.07.03.36.08.72.15,1.07.07.35.16.69.27,1.03h6.03c-.28-.45-.48-1.12-.59-2.01-.11-.89-.17-1.83-.17-2.81ZM609.74,292.67c0,.34-.04.78-.1,1.34-.07.56-.26,1.11-.57,1.66-.31.54-.78,1.01-1.42,1.4-.64.39-1.55.59-2.72.59-.48,0-.94-.04-1.38-.13-.45-.08-.84-.23-1.17-.44-.34-.21-.6-.49-.8-.84-.2-.35-.29-.8-.29-1.36s.1-.99.29-1.36c.19-.38.45-.68.77-.92.32-.24.69-.42,1.11-.57.42-.14.87-.25,1.34-.34.45-.08.91-.15,1.4-.21.49-.06.95-.13,1.38-.21.43-.08.84-.19,1.22-.31.38-.13.69-.3.94-.52v2.22Z"/>
  <path class="cls-1" d="M639.95,282.32c-.81-1.06-1.83-1.91-3.06-2.56-1.23-.64-2.7-.96-4.4-.96-1.34,0-2.57.27-3.69.8-1.12.53-2.04,1.38-2.77,2.56h-.08v-2.77h-5.66v29.29h5.95v-10.31h.08c.73,1.06,1.66,1.87,2.81,2.43,1.15.56,2.37.84,3.69.84,1.59,0,2.98-.31,4.17-.94,1.19-.63,2.18-1.46,2.98-2.49.8-1.03,1.39-2.22,1.78-3.56.39-1.34.59-2.74.59-4.19,0-1.54-.2-3.01-.59-4.42-.39-1.41-.99-2.65-1.8-3.71ZM636.14,292.86c-.17.82-.45,1.55-.86,2.18-.41.63-.94,1.14-1.59,1.53-.66.39-1.47.59-2.45.59s-1.8-.2-2.45-.59c-.66-.39-1.19-.9-1.59-1.53-.41-.63-.7-1.35-.88-2.18-.18-.82-.27-1.68-.27-2.58s.08-1.73.25-2.58c.17-.85.45-1.6.86-2.24.4-.64.94-1.17,1.59-1.57.66-.4,1.47-.61,2.45-.61s1.75.2,2.41.61c.66.41,1.19.94,1.61,1.59.42.66.72,1.4.9,2.24.18.84.27,1.69.27,2.56s-.08,1.75-.25,2.58Z"/>
  <path class="cls-1" d="M666.02,286.84c-.39-1.54-1.03-2.9-1.91-4.11-.88-1.2-2-2.16-3.37-2.87-1.37-.71-2.97-1.07-4.82-1.07-1.65,0-3.15.29-4.5.88-1.35.59-2.52,1.39-3.5,2.41-.98,1.02-1.73,2.23-2.26,3.62-.53,1.4-.8,2.91-.8,4.52s.26,3.21.77,4.61c.52,1.4,1.25,2.6,2.2,3.6.95,1.01,2.11,1.79,3.48,2.35,1.37.56,2.9.84,4.61.84,2.46,0,4.55-.57,6.29-1.72,1.73-1.15,3.02-3,3.86-5.57h-5.24c-.2.67-.73,1.31-1.59,1.91-.87.6-1.9.9-3.1.9-1.68,0-2.96-.44-3.86-1.32-.89-.88-1.38-2.27-1.47-4.17h15.63c.11-1.68-.03-3.28-.42-4.82ZM650.81,287.89c.03-.42.12-.89.27-1.42.15-.53.42-1.03.8-1.51.38-.48.88-.87,1.51-1.19.63-.32,1.42-.48,2.37-.48,1.45,0,2.54.39,3.25,1.17.71.78,1.21,1.93,1.49,3.44h-9.68Z"/>
  <path class="cls-1" d="M683.45,295.96c-.78.8-1.87,1.19-3.27,1.19-.92,0-1.7-.21-2.35-.63-.64-.42-1.15-.96-1.53-1.61-.38-.66-.65-1.39-.82-2.2-.17-.81-.25-1.61-.25-2.39s.08-1.59.25-2.43c.17-.84.45-1.6.86-2.28.4-.68.93-1.24,1.57-1.68.64-.43,1.44-.65,2.39-.65,2.54,0,4.01,1.24,4.4,3.73h5.82c-.08-1.37-.43-2.57-1.03-3.6-.6-1.03-1.36-1.89-2.28-2.58-.92-.68-1.98-1.19-3.16-1.53-1.19-.34-2.42-.5-3.71-.5-1.76,0-3.32.29-4.69.88-1.37.59-2.53,1.4-3.48,2.45-.95,1.05-1.67,2.29-2.16,3.73-.49,1.44-.73,3-.73,4.67s.27,3.11.8,4.46c.53,1.35,1.27,2.53,2.22,3.52.95.99,2.09,1.76,3.44,2.3,1.34.54,2.84.82,4.48.82,2.88,0,5.24-.76,7.08-2.28,1.84-1.52,2.96-3.72,3.35-6.6h-5.74c-.2,1.34-.68,2.41-1.47,3.21Z"/>
  <path class="cls-1" d="M712.7,281.92c-.98-.99-2.16-1.76-3.54-2.3-1.38-.54-2.93-.82-4.63-.82s-3.24.27-4.61.82c-1.37.54-2.54,1.31-3.52,2.3-.98.99-1.73,2.19-2.26,3.6-.53,1.41-.8,2.98-.8,4.71s.27,3.3.8,4.69c.53,1.4,1.29,2.59,2.26,3.58.98.99,2.15,1.76,3.52,2.3,1.37.54,2.9.82,4.61.82s3.25-.27,4.63-.82c1.38-.55,2.56-1.31,3.54-2.3.98-.99,1.73-2.19,2.26-3.58.53-1.4.8-2.96.8-4.69s-.27-3.3-.8-4.71c-.53-1.41-1.28-2.61-2.26-3.6ZM709.56,292.77c-.17.82-.46,1.56-.86,2.22-.41.66-.95,1.18-1.64,1.57-.68.39-1.53.59-2.53.59s-1.84-.2-2.51-.59c-.67-.39-1.21-.91-1.61-1.57-.41-.66-.69-1.4-.86-2.22-.17-.82-.25-1.67-.25-2.54s.08-1.72.25-2.56c.17-.84.45-1.58.86-2.22.4-.64.94-1.17,1.61-1.57.67-.4,1.51-.61,2.51-.61s1.85.2,2.53.61c.69.41,1.23.93,1.64,1.57.4.64.69,1.38.86,2.22.17.84.25,1.69.25,2.56s-.08,1.71-.25,2.54Z"/>
  <polygon class="cls-1" points="701.39 276.7 705.53 276.7 711.99 270.75 705.41 270.75 701.39 276.7"/>
</svg>